<svg width="211" height="154" viewBox="0 0 211 154" fill="none" xmlns="http://www.w3.org/2000/svg">
<g filter="url(#filter0_d_8_73)">
<rect x="4" y="0.0112305" width="109.99" height="107.035" rx="14" fill="#1F222A"/>
</g>
<path d="M51.2339 41.8188L58.9068 63.2051L59.2051 63.2035L66.6456 41.7352L69.8771 41.7177L60.6687 67.2226L57.4869 67.2398L48.0024 41.8364L51.2339 41.8188ZM72.3373 67.3582C71.7241 67.3615 71.1968 67.1448 70.7553 66.708C70.3137 66.2712 70.0913 65.7463 70.088 65.1331C70.0847 64.52 70.3014 63.9926 70.7381 63.5511C71.1749 63.1095 71.6999 62.8871 72.313 62.8838C72.9262 62.8805 73.4535 63.0972 73.8951 63.534C74.3366 63.9707 74.559 64.4957 74.5623 65.1088C74.5645 65.5148 74.463 65.8883 74.2577 66.2291C74.0607 66.5699 73.7929 66.8448 73.4543 67.0538C73.1239 67.2545 72.7516 67.3559 72.3373 67.3582Z" fill="white"/>
<g filter="url(#filter1_d_8_73)">
<rect x="90" y="31.0112" width="109.99" height="107.035" rx="14" fill="#1F222A"/>
<path d="M150.119 79.0446C149.963 77.786 149.353 76.8115 148.288 76.1213C147.224 75.431 145.921 75.0901 144.38 75.0984C143.253 75.1045 142.268 75.2922 141.425 75.6613C140.59 76.0304 139.938 76.5353 139.47 77.1759C139.009 77.8164 138.781 78.5427 138.785 79.3547C138.789 80.0341 138.954 80.6174 139.28 81.1045C139.614 81.5833 140.038 81.9829 140.554 82.3032C141.069 82.6153 141.609 82.8734 142.174 83.0775C142.738 83.2733 143.257 83.432 143.73 83.5538L146.319 84.2358C146.983 84.4062 147.722 84.6425 148.535 84.9446C149.357 85.2468 150.142 85.6609 150.891 86.1872C151.648 86.7051 152.273 87.3729 152.766 88.1905C153.26 89.0082 153.51 90.0136 153.516 91.2068C153.523 92.5822 153.17 93.8271 152.455 94.9413C151.748 96.0554 150.709 96.9435 149.337 97.6056C147.974 98.2676 146.314 98.6039 144.359 98.6145C142.536 98.6244 140.956 98.3388 139.618 97.7577C138.29 97.1766 137.241 96.362 136.473 95.3138C135.713 94.2656 135.28 93.0458 135.173 91.6543L138.355 91.637C138.443 92.5977 138.77 93.3914 139.337 94.0181C139.912 94.6364 140.636 95.0965 141.507 95.3984C142.387 95.6919 143.333 95.8359 144.343 95.8304C145.52 95.8241 146.575 95.6278 147.51 95.2415C148.444 94.847 149.183 94.3044 149.726 93.6137C150.269 92.9147 150.538 92.1012 150.533 91.1732C150.528 90.3281 150.288 89.6416 149.813 89.1139C149.338 88.5862 148.714 88.1587 147.942 87.8314C147.169 87.5042 146.335 87.2187 145.439 86.9749L142.302 86.0971C140.31 85.5361 138.732 84.7285 137.566 83.6742C136.4 82.6199 135.812 81.2352 135.803 79.52C135.795 78.0948 136.174 76.8499 136.939 75.7851C137.712 74.712 138.751 73.8777 140.057 73.2823C141.372 72.6786 142.841 72.3723 144.465 72.3635C146.105 72.3546 147.565 72.6409 148.845 73.2223C150.124 73.7953 151.139 74.5853 151.89 75.5921C152.65 76.5989 153.054 77.7444 153.102 79.0284L150.119 79.0446ZM160.362 98.2791C159.749 98.2824 159.222 98.0657 158.78 97.6289C158.339 97.1922 158.116 96.6672 158.113 96.0541C158.11 95.4409 158.327 94.9136 158.763 94.472C159.2 94.0305 159.725 93.8081 160.338 93.8047C160.951 93.8014 161.479 94.0181 161.92 94.4549C162.362 94.8917 162.584 95.4166 162.587 96.0298C162.59 96.4358 162.488 96.8092 162.283 97.1501C162.086 97.4909 161.818 97.7658 161.479 97.9748C161.149 98.1754 160.777 98.2769 160.362 98.2791Z" fill="white"/>
</g>
<defs>
<filter id="filter0_d_8_73" x="0.00146484" y="0.00146484" width="117.998" height="115.044" filterUnits="userSpaceOnUse" color-interpolation-filters="sRGB">
<feFlood flood-opacity="0" result="BackgroundImageFix"/>
<feColorMatrix in="SourceAlpha" type="matrix" values="0 0 0 0 0 0 0 0 0 0 0 0 0 0 0 0 0 0 127 0" result="hardAlpha"/>
<feOffset dy="4"/>
<feGaussianBlur stdDeviation="2"/>
<feComposite in2="hardAlpha" operator="out"/>
<feColorMatrix type="matrix" values="0 0 0 0 1 0 0 0 0 1 0 0 0 0 1 0 0 0 0.85 0"/>
<feBlend mode="normal" in2="BackgroundImageFix" result="effect1_dropShadow_8_73"/>
<feBlend mode="normal" in="SourceGraphic" in2="effect1_dropShadow_8_73" result="shape"/>
</filter>
<filter id="filter1_d_8_73" x="79.0015" y="24.0015" width="131.998" height="129.044" filterUnits="userSpaceOnUse" color-interpolation-filters="sRGB">
<feFlood flood-opacity="0" result="BackgroundImageFix"/>
<feColorMatrix in="SourceAlpha" type="matrix" values="0 0 0 0 0 0 0 0 0 0 0 0 0 0 0 0 0 0 127 0" result="hardAlpha"/>
<feOffset dy="4"/>
<feGaussianBlur stdDeviation="5.5"/>
<feComposite in2="hardAlpha" operator="out"/>
<feColorMatrix type="matrix" values="0 0 0 0 1 0 0 0 0 1 0 0 0 0 1 0 0 0 1 0"/>
<feBlend mode="normal" in2="BackgroundImageFix" result="effect1_dropShadow_8_73"/>
<feBlend mode="normal" in="SourceGraphic" in2="effect1_dropShadow_8_73" result="shape"/>
</filter>
</defs>
</svg>
